<svg id="图层_1" data-name="图层 1" xmlns="http://www.w3.org/2000/svg" xmlns:xlink="http://www.w3.org/1999/xlink" viewBox="0 0 18 18"><defs><style>.cls-1{fill:#fff;}.cls-2{mask:url(#mask);}.cls-3{fill:#99a2aa;}</style><mask id="mask" x="0" y="0" width="18" height="18" maskUnits="userSpaceOnUse"><g id="mask-2"><rect id="path-1" class="cls-1" width="18" height="18"/></g></mask></defs><title>ic_close</title><g id="Page-1"><g id="Dialog"><g id="承包"><g id="充电"><g id="ico_close" data-name="ico close"><g class="cls-2"><path id="Combined-Shape" class="cls-3" d="M9,8.29,3.35,2.65h0a.5.5,0,0,0-.71,0h0a.5.5,0,0,0,0,.71h0L8.29,9,2.65,14.65h0a.5.5,0,0,0,.71.71L9,9.71l5.65,5.65a.5.5,0,0,0,.71-.71h0L9.71,9l5.65-5.65h0a.5.5,0,0,0,0-.71h0a.5.5,0,0,0-.71,0h0Z"/></g></g></g></g></g></g></svg>